<svg id="svg3751" xmlns="http://www.w3.org/2000/svg" viewBox="0 0 855.9 186.1"><path fill="#FFF" id="path3107" class="st0" d="M830.8 128.4c4.4 0 8.1-3.6 8.1-8.1.2-4.7-3.6-8.1-8-8.2-4.6 0-8.1 3.5-8.1 8.2.1 4.5 3.6 8.1 8 8.1m.1-14.9c3.8 0 6.8 3 6.8 6.8-.2 3.9-3 6.8-6.9 6.8-3.7 0-6.7-3.1-6.7-6.8.1-3.7 3.1-6.8 6.8-6.8m1.1 7.2s1.9-.3 2.1-2.4c0-2-1.5-2.6-3.2-2.6h-2.6v9.2l1.6.1.1-4.2h.4l2.2 4.2h1.9l-2.5-4.3zm-1.4-3.5c1.1 0 1.8 0 1.8 1.1 0 .8-.7 1.1-1.8 1.1h-.7v-2.2h.7z"/><path fill="#FFF" id="path3113" class="st0" d="M854.9 68.7c-.9-.9-2.9-1.1-4.2-.2-1.4.9-2 1.3-4.9 3.2-3.2 2-7.2 4.7-12.5 6.9-5.6 2.3-9.6 4-14.5 5.1-4.6 1.1-7.4 1.6-11 2-3.4.3-4.4.1-4.4.1s-.4-.2 0-1.5c.5-1.3 1.5-3.2 2.2-6.5.8-4 1-6.9.6-10.2-.4-4.5-2-6.3-4.4-8-2-1.6-7.5-2.5-11.8-1.9-3.5.4-8.9 3.1-12.5 4.6-3.5 1.7-7.7 4.3-11.6 7.2-4 2.8-8.3 6.4-11.3 10-3.7 3.5-5.9 6.5-8.2 9.6-2.2 3.2-3.4 5-5.2 8.3-1.9 3.2-3.3 5.6-4.5 7.2-1.3 1.5-3.1 3.2-5 4.2-2 1-2.5 1.4-3.7.9-1.2-.4-1.5-1.8-1.4-3.6.3-1.9 1.2-4.2 2.8-8.2 1.9-3.9 5.2-10.2 7.4-14.2 2.5-4 5.1-9.4 7.4-13.1 2.1-3.7 5-8 6.4-10.1 1.3-1.9 2-3.1 3-3.8 1.3-.7 3.9-1.5 7.1-2.5 3.4-.9 11.4-3.6 16.4-5.7 4.7-2.3 12.7-7 16.1-9.6 3.3-2.5 6.9-5.4 10.9-9.5s7.8-8.9 9-11.9c1.5-3.2 1.8-8.2.2-11.1-1.5-2.8-4.5-4.7-8.7-4.7-4.1 0-9.1 1.4-13.3 3.3-4.2 2-10.1 5.4-15.2 8.6-4 2.8-8.2 5.9-12.4 9.5-4.2 3.6-10.2 9.3-13 12.4-3 3-4.1 4.7-6.6 7.5s-6.9 8.2-6.9 8.2-2 .6-6.6.3c-4.5-.2-9.6-1.1-14-3-3.6-1.6-7.1-3.8-9.9-7-2.1-2.5-5-5.9-5.3-11.3-.2-5.5 1.9-9.4 3.5-11.9 1.7-2.4 3.5-4.8 8.2-7.6C718 8.1 722 6.3 727 4.9c4.5-1.2 8.9-1.8 13.4-1.8 4.7-.1 8.7.4 11.2.7 2.4.2 3.4.2 3.4-.2.1-.3-3.4-1.6-7.9-2.3-5.6-.9-13.6-1.4-20.6-.3-6.2 1-13.4 3.3-18.8 6.5-5.9 3.4-10.7 7.3-13.2 12.3-2.6 5.1-2.6 9.3-2.5 12.7 0 4.3 1.8 8.3 5.6 12.6 4 4.8 10.6 8.6 13.5 9.9 3.2 1.3 8.8 2.9 12.5 3.3 3.5.1 6.3.6 6.3.6s1.5.2.8 1.6c-.8.9-1.4 2.1-2.8 4.3-1.7 2.2-4.6 6.6-6.8 8.6-2.2 2.1-4.6 4.1-6.7 5.5-2.2 1.4-4.4 2.3-4.4 2.3s-1.4.5-1.7 0c-.2-.3 0-1.6.1-2.6.6-2.5 1.2-5.8.9-8.3-.4-2.4-1.2-5.5-3.1-8.1-1.8-2.3-6.1-3.8-9.3-3.8-3.2 0-7 .8-10.8 2.3-4 1.6-9.8 4.5-13.6 7.1-3.8 2.7-5.6 3.7-8.2 5.7-2.6 2.2-6.8 6.2-10 10-3.1 3.7-5.7 7.4-8.3 11-2.1 3.5-2.8 4.6-4.3 7.2-1.6 2.7-2.6 4.1-4.4 5.8-1.6 1.7-4.3 3.7-6.2 4.1-1.9.2-4.6.8-5.3-1-.6-1.8-.3-2.6.7-5.1 1.5-2.5 4.4-7.1 6.5-10.3 2-3.2 5.1-7.1 7.7-11.2 2.6-3.8 5.2-7.5 6.8-10.5 1.9-3 2.8-6.2 2.8-8.1 0-2-.6-4.4-2.4-5.3-2-1.1-5.9-2-8.5-1.7-3.2.4-7.1.9-10.1 2-2.9 1-5.5 1.8-7.9 3-1.1.4-1.7.8-2.2.5-.9 0-.9-.5-.3-1.3.5-.8 1.3-2.4 1.3-2.4s.2-1-.6-1c-.7-.1-19.5-.1-19.5-.1s-1.3 0-1.6.6c-.4.8-19.8 29.5-19.8 29.5s-2.3 3.1-3.8 5.1c-1.5 2.1-2.4 3.8-4.6 5.7-1.9 1.9-6 4.6-8.4 6.5-2.4 1.9-5.2 3.9-7.9 5.2-2.2 1.2-3.5 1.3-3.5 1.3s-2.3.6-1.1-1.5c1.1-1.9 3.9-5.8 5.6-8.2 1.5-2.4 28.4-42.5 28.4-42.5s.9-1.4-.3-1.4l-19-.2s-.7 0-1.2.6c-.4.6-1.7 2.3-1.7 2.3s-.4 1.2-1 .6c-.5-.3-.6-1.4-2.2-2.4-2.1-1.4-4.7-3-9.4-2.7-4.7.2-8.5 1.4-11.7 2.9-3.4 1.6-7.3 3.4-10.9 6.2-3.4 2.6-9.9 7.7-14.2 12.2-3.5 3.8-6.1 6.6-9.6 11.2s-3.8 5.4-5.5 8.3c-1.9 2.9-3 4.5-5.6 6.3-2.4 1.9-3.9 3-6 4.1-1.9 1-3.4 1.6-5.2 1.8-1.7.2-2.9-.4-2.9-2.2.1-1.8 1.2-3.2 2.5-5.2 1.2-1.9 9.7-14.2 12.7-18.4 2.7-4.2 15.7-24.3 15.7-24.3s.8-1.1-.2-1.2h-18.9s-.5-.2-1 .4c-.3.5-2 2.5-2 2.5s-.8.8-1.5.8c-.6-.2-.7-.4-2-1.6-1-.9-2-2.1-4.1-2.9-2.8-.8-7.6-.9-11.4.3-3.8 1.3-9.4 3.4-14.5 6.9-4.9 3.3-7.9 5.4-11.2 8.5-3.5 3-7.3 6.7-10.7 11.2-2.2 3.3-4.3 5.7-5.6 8.1-1.5 2.4-5.3 8.2-8.1 11-2.8 2.6-5.7 5.1-7.5 5.8-2 .7-4.8 1.8-6.1.6-1.3-1-1.5-2.3 0-5.5 1.2-2.5 6.1-9.2 8.2-12.6 2.2-3.4 8.9-13.1 10.6-15.9 1.5-2.8 3.1-4.8 3.9-7.1.7-2.4 1.5-6.3-.4-8.6-1.8-2.1-6.3-3-10.8-2.5-4.5.5-7.3 1-10.6 2.1-3.6 1.2-8.1 3.1-8.1 3.1s-1.8.7-1.2-.8c.5-1.1 1.8-3 1.8-3s.4-.8-.5-.8c-1.4-.2-1.9 0-1.9 0l-17.6-.2s-.6-.2-1.2.8c-.4.7-28.3 41.6-28.3 41.6s-2.1 2.5-4.5 4.3c-1.9 1.6-5.4 3.7-7.2 4.7-1.9.9-4.2 1.1-5.4.7-1.7-.7-2.2-2.5-1.1-4.8.9-2.2 5.3-8.7 5.3-8.7l18.3-27.8s1.1-2.8 1.1-4.8c0-2.1-2.2-5.3-4.8-5.8-2.4-.5-5.1-.9-9.4-.1-4.3.7-8.2 2.2-12.6 3.6-3.5 1.2-6.2 3-7.4 3.4-1.2.5-1.8.9-2.3.3-.6-.6-.1-2.1-.6-3.5-.8-1.9-3-4.3-5.5-4.6-2.8-.1-6 0-9.1.4-3.2.5-6.8 1.6-10 2.6-3.5.9-6.7 2.5-6.7 2.5s-2.3.8-1.4-.4c.5-1.2 1.8-3.4 1.8-3.4s.6-.6-.7-.8c-1-.1-19.4-.1-19.4-.1s-1.1-.1-1.4.7c-.8 1.2-20.8 30.1-20.8 30.1s-3 4.6-5.6 7.7c-2.7 2.9-6.5 6.6-9.2 8.2-2.5 1.7-6.6 4-8.4 4.3-1.6.4-4.2.4-4-2 0-2.3 1.8-4.5 3.1-6.5 1.1-1.9 28.2-41.8 28.2-41.8s.6-.7-.5-.7l-19.4-.1s-.8-.1-1.2.4c-.8 1.2-2.2 3.1-2.2 3.1s-.7 1-1.5.1c-1.2-1.8-2.6-3.4-6-4.5-2.9-1-8.9-.2-12 .8-3.9 1.3-9.2 3.8-12.8 6.2-4.2 2.7-7 4.8-10.6 7.7-3.6 2.9-8.4 8-12.1 12.3-3.9 4.8-6.8 9.5-8.5 11.6-1.3 1.8-4 3.7-6.5 5.6-2.3 1.7-5.1 3.4-9.1 4.7-3.8 1.4-7.8 2.1-11.1 2.3-3.4.3-7.8-2.4-8.5-5.6-1-3.1-.1-8.5 1.2-12.6 1.4-4.1 3.6-9.4 6.1-14.3 2.5-4.9 4.5-8.8 5.7-10.8 1.3-2 2.8-3.6 2.8-3.6s7.6-1 16.9-3.2c9.5-2.1 24.7-6.9 35.8-11.9 11.9-5.4 25.8-16.7 30.3-21.3 4.3-4.2 14.3-14.2 8.9-21.6-4.9-6.8-30-2.7-41.9 1.2-12.7 3.6-25.1 11.6-35.1 19-9 6.6-19.4 17.6-24 22.2-4.6 4.3-9.7 10.8-9.7 10.8s-4.3.3-10.2.3c-5.9.4-13.3.4-27.1.4-13.7 0-20.1-.7-32-1.8-10.4-.8-23.9-3.5-27.4-4.3-.4-.2-.9-.2-1.7 0-.6.5-6.6 3.2-10.8 4.7C9 58.4.6 61.8.6 61.8S-.7 62.9.7 63c1.2.1 24.1 1.6 33.4 1.8 9.7.1 35.4.5 42.5.3 7.2-.2 39.7-.9 39.7-.9s.5.4.2.9c-.3.6-8.4 12.6-11 18.1-2.6 5.3-7.4 15.4-8 22.2-.7 6.9-.6 14.8 4.4 18.2 4.6 3.6 11.8 4.5 19.9 2.2 8.1-2.2 13.5-4.8 18.7-7.8 5.4-2.9 8.5-5.2 10.5-6.5 1.5-1.1 3.3-2.4 4-2.1.4.2.1 1.6.1 3.6 0 2.1.6 7 2.2 9.4 1.5 2.1 4 4.8 8.5 5.1 4.8.3 9.8-1.7 13.6-3.5 3.5-2 5.8-3.4 7.4-4.6 1.8-1.1 2.5-2.5 3.4-2.2.8.5.3 1.8.7 3.4.1 1.4 1.4 4.3 3.4 5.3 1.9 1.1 5.4 2.1 7.8 1.5 2.9-.5 5.5-1.7 8.4-2.8 3.1-1.2 5.8-3.2 8.1-4.5 2-1.4 3.7-2.9 4.4-2.5.5.4 0 .8-.4 1.6-.6.9-3.3 5.4-3.3 5.4s-.8 1.6.3 1.6h19s.9.2 1.7-.8c.9-1 32-46.5 32-46.5s2.6-2.7 4.7-4.1c2.6-2 7-4.1 9.2-2.4 2.4 1.7 1.3 3.8-.4 7-1.7 3.1-5.5 7.7-5.5 7.7l-24.8 38.2s-.8 1 .6 1c1.6-.2 19.8 0 19.8 0s.4 0 1.1-.5c.8-1.1 32.3-46.8 32.3-46.8s2.7-2.4 5-3.8c2.1-1.3 5.8-3.3 8-1.8 2.2 1.5 1.8 4.8 1.3 6.4-.8 1.6-3.1 4.3-3.1 4.3L303 109.9s-2.9 3.9-3.5 6c-.6 2.2-2.3 6.9.6 9.9 2.9 2.9 8 2.6 10.5 2.2 2.3-.4 6.9-2 9.8-3 3.1-.9 9.6-4.4 9.6-4.4s2.7-1.8 3.3-1.3c.5.4.2.9-.7 2.1-.9 1.2-23 34.3-23 34.3s-1.3 1.2.2 1.3c1.1 0 20.2.1 20.2.1s.5.1 1.1-.6c.4-.6 50.1-74.2 50.1-74.2s3.8-5.3 6.4-7.3c2.3-1.9 6-4.2 8.4-4.2 2.3-.2 4.2.4 4.3 2.1.3 1.9.3 3.1-1 5.2-1.3 2.2-22 33.5-22 33.5s-3.2 6-3 9.2c.4 3.2 1.9 6.6 7 7.1 5.3.5 11-1.4 14.8-2.9 3.7-1.3 7.4-3.5 10.8-5.5 3.2-2.1 5.8-4 6.8-4.7 1.2-.8 2.3-1.5 2.8-1.2.5.6 0 4.1.3 6.2.2 1.6 1.4 5.2 4.5 6.7s6.9 2 10.4 1.3c3.3-.8 6.2-1.9 10.7-4.3 4.4-2.4 6.6-4 8-4.9.6-.5 1.1-.7 1.3-.4.7.4.3 1.4.7 2.7.5 2.7 1 4.2 3.2 5.6 2.3 1.3 7 1.9 10.3.9 3.1-1.1 9.2-4.4 13.1-6.5 3.6-2.2 8-5.2 9.7-6.4 1.5-1.1 3.1-2.5 3.3-2.1.4.4.4 1.4.4 2.7 0 1.5.6 6.1 2.2 8.3 1.6 2.1 5.1 3.9 9.2 4.3 4.3.4 6.4-.4 8.4-1 1.9-.7 4.1-1.6 4.1-1.6s1-.3 1 0c.1.3.1.8-.9 1.8-1.3.9-5.7 3.6-10 5.2-4.3 1.4-13 5.9-17.7 9-4.8 3.1-13.1 9.6-16.2 12.7-3 2.9-9.2 10.4-10.9 13.6-1.8 3.2-4.3 7.5-4.4 11.8 0 4.2 2 6.1 3.6 6.8 1.8 1 7 .5 10.8-.7 3.5-1 10.1-4.3 13.8-6.9 3.6-2.4 7-4.7 12.9-9.6 6.4-5.5 11.4-9.9 16.2-14.9 5-4.8 6.3-6.2 10.5-11.6 4.2-5 7.7-9.2 10.2-12.1 2.4-3.1 2.8-4.3 5.6-5.3 3.2-1 5.1-1.8 8.2-3.2 3-1.3 8-3.8 8-3.8s1-.5 1.3-.4c.4.4.2.5-.6 1.8-.6 1.3-4 6.1-4 6.1s-.8 1.1.5 1.2c1 .1 19.8.1 19.8.1s.8 0 1.5-.8c.4-.8 24.7-35.8 24.7-35.8s4.3-6.3 6.3-8.9c2.2-2.4 3.5-3.8 6-5.7 2.6-1.8 5.7-3.3 7.9-3.5 1.9-.1 3.3 0 3.9 1.6.5 1.7-.1 3.6-1.3 5.3-1 1.8-20.1 29.4-20.1 29.4s-2.3 3.4-3.1 5.2c-1.1 1.9-2.5 5.5-2 8.5.2 2.9 2.7 4.9 5.4 5.5 2.9.7 7 .3 9-.4 2.2-.3 8.5-2.3 10.7-3.1 2.1-.8 5.1-2.5 7.9-4.1 2.6-1.5 5.3-3.3 5.3-3.3s1.1-.7 1.4-.4c.7.4.6 1 .9 2.1.4 1.8 1.4 4.3 3.2 5.8 2.2 1.7 5.3 3 7.7 3.3 2.4.1 6.6-.5 9.8-1.5 3.1-1.1 9.2-3.8 15-7 5.7-3.5 11.9-8.4 15.3-11.4 3.3-3.1 7.7-8.3 9.6-10.7 1.5-2.2 2.3-3.8 3.8-4.6 2.1-1.4 3.8-1.6 5.3-2.4 1.8-.7 3-1.3 3.6-1 .4.3.3.9-.1 1.8-.6.9-10.6 22.7-10.6 22.7s-1.3 3.8-1.4 6.2c-.2 2.1.3 4.9 2.4 6.4 2.2 1.5 5.1 1.7 8.8 1.2 3.5-.2 7.8-2 10.7-3.4 3.4-1.5 6.8-4.1 8.7-5.4 1.8-1.3 3.6-2.8 3.6-2.8s.5-.6.8-.3c.6.2.9.6 1 1.9.1 1.5.6 3.2 1.8 4.8 1 1.8 4.4 4.2 6.8 4.7 3.5.3 6.7.3 9.5-.2 2.6-.5 10.8-3.9 14.3-6.1 3.8-2.2 8.8-5 12.7-8.4 4.4-3.5 8.8-7.5 11.4-10.4l6.3-7 1.3-.3c1.2-.2 4.9-.6 9.1-1.3 4.2-1 12.6-3.2 12.6-3.2s1.8-.3 2.1.2c.3.5-.4 1.5-.4 1.5s-4 5-7.5 9.5c-3.6 4.4-8.5 10.9-12 16.1-3.6 5.4-10.8 17.4-10.8 17.4l-1.1 1.8s0 .5-1.2.6c-1 0-16.5.1-27 .1-9.6.1-41.2.6-51.7.9-10.6.3-33.3 1.8-44.3 2.7-10.4.8-32.6 3.6-43.9 5.5-10.6 1.6-29.5 5.9-38.1 8-7.8 1.9-25.8 8.3-25.8 8.3s-1.2.3-.5 1c1.1.9 4.5 2.2 7.6 3.6 2.9 1.4 8.9 3.8 8.9 3.8s.9.5 2.4 0c1.2-.6 12.9-5.3 23.3-8.3 10.9-2.9 22.3-6 31.4-7.8 8.9-2.1 25.5-4.5 34.6-5.7 9-1.2 21.7-2.6 31.5-3.2 9.9-.9 22.2-1.8 33.8-2.3 11-.4 27.3-1.1 39.3-1 12.3.1 22.3-.3 22.3-.3s.5.1 1.1-.5c.3-.5 5.5-9.6 8.6-14.6 2.9-4.8 8.6-13.4 12.8-19.3 4.5-6 7.8-10.5 10.7-13.9 3-3.5 7.1-8.1 7.1-8.1s.4-.3 1.6-.9c1-.6 3.8-1.8 7.8-3.8 3.8-2 6.9-3.9 8.8-5.4 1.7-1.5 2.9-2.8 3.1-3.9.3-.6-.1-2.1-1-3m-92-25.6c2.6-3.7 8.4-10.7 14.1-15.9 5.6-5.3 12.7-10.5 15.4-12 2.3-1.4 6.5-3 8.1-1.4 1.5 1.6.5 4.4-.8 6.3-1.2 1.8-4.3 6.7-9.3 11.2-4.9 4.3-9.1 7-14.1 9.5-3.8 1.9-8.9 3.9-11.6 4.8-1.8.5-2.8.8-3 .3-.3-.3.2-1.5 1.2-2.8m-614.5 7.2c1.8-2.1 10-12 15.6-16.8 5.6-4.6 11-9.6 16.9-13 6-3.4 9.5-5.5 13.6-7 4.3-1.4 12.7-3 14.7.3 2.2 3.2-.3 8-4.2 12.1-3.8 4.4-11.5 10.9-17.6 14.4-6.3 3.7-14 7-20.9 9.5-9.2 3.2-18.8 4.6-18.8 4.6s-1.5.3-1.5-.3c-.1-.7.4-1.8 2.2-3.8m55.3 41.8c-9.2 10.9-20.3 16.7-24.3 13.1-4.2-3.5-.5-15.4 8.9-26.2 9.2-10.9 20.3-16.7 24.4-13.1 4.1 3.5.4 15.4-9 26.2m261.4.3c-9.2 10.9-20.1 16.7-24.3 13.1-4.2-3.4-.3-15.3 9-26.2 9.1-10.7 20.3-16.6 24.4-13.1 4.1 3.4.2 15.3-9.1 26.2m41.7 51.1c-1.8 2.8-6 8.9-12.2 15-4.2 4.2-10.1 8.9-13.8 11.2-2.5 1.7-6.3 3.4-7.6 1.7-1.2-1.4 0-4.7 2.7-8.2 2.4-3.4 8.4-10 14.7-14.5 6.5-4.6 11.8-7.1 13.3-7.7 1.6-.6 3.5-1.2 4-.9.2.5 0 1.7-1.1 3.4m9.7-38.2c-4.1-3.5-.4-15.4 8.6-26.2 9.5-10.9 20.6-16.7 24.8-13.1 4.1 3.5.1 15.4-9 26.2-9.2 10.8-20.3 16.6-24.4 13.1M688 79.1c-1.8 9.2 2.2 11.3 1.3 12.2-.1.4-.9 1.4-1.3 1.9-9.1 10.4-20.7 15.5-24.7 12.1-3.6-3.1 0-14.9 9.3-25.7 9.2-10.5 20.9-16 24.6-13.2.4.3.9.9 1.1 1.7.2.5-7.8 1.7-10.3 11m97.9-.4c-1.6 9.1 2.2 11.1 1.3 12-.4.6-.8 1.4-1.3 2-9 10.2-21 15.3-24.8 12.1-3.6-3.2 0-15 9.2-25.8 9.2-10.5 21.2-16 25-13.2.3.3.5 1.1.9 1.7 0 1-7.7 1.9-10.3 11.2"/></svg>
