<svg xmlns="http://www.w3.org/2000/svg" viewBox="0 0 2448.8 369.3"><path d="M2064.5 48.5h-128.8l-96 311.2h144.8l94-311.2h-14zM935.3 116.7H810.6l-88.3 243h133.1L906 231.8c5.4-4.1 20.2-15 36.1-24.8 19.5-12 35.1-16 42.9-14.6-.6 4.9-.9 9.9-.9 14.9 0 5.1.4 10.5 1.4 15.4 2.9 13.6 13.3 36.3 50.1 36.2 19.7.1 32.9-2.8 43-9.5 10.2-6.7 15.8-16.3 21.1-28.5l.1-.2c13.5-32.6 5.2-53.5-4.1-65.3-9.9-12.6-22.8-17.2-24.3-17.6-33-11.8-70.6-10-108.6 5.4-9.8 3.9-19 8.3-26.8 12.3.5-1.3 14.2-38.9 14.2-38.9l-14.9.1zm596.9 0h-82s-110.8 111.4-125.6 126.2l-61.1-126.2h-172.6L1171 268l49.3 91.8h101.3l235.1-243-24.5-.1zM38.6 172.1C13.2 197.6-.5 227.3 0 255.6c.5 29.5 15.8 56.7 43 76.8 30.1 22.2 100.5 53.6 234 14.8l.8-.2.3-.1 20.8-9.8 16.9-10.5c9.4-6.4 26.7-22.1 27.4-22.8l7.9-7.3-28.4-29.2-7.1 4.3c-55.4 33.6-107.9 42.2-143.8 23.5-18.4-9.5-30.6-25.7-31.7-42.3-1.6-23.4 7.9-44.7 26.2-58.4 23.7-17.9 58.2-20.8 95.4-9.3-.6 3.6-1.1 7.7-1.1 11.6v1.3c.3 10.2 4.5 24.6 22.8 35l.6.3.6.2c39 16.1 66.4-.4 77.9-19.4 7.1-11.7 9.3-25.6 6.1-38.1-3.1-11.9-10.7-21.6-22-28l1.2.8c-21.4-16.3-40.5-26.4-62.1-32.7-20.6-6-42.1-8-66.1-9.9-71.5-.9-139 23.7-181 65.9m2100.6-39.2c-46.2 20.2-81.4 53.4-94.3 88.7-3.4 9.4-5.1 18.6-5.1 27.5 0 25 13.1 47.9 38.5 66.3 29.4 21.3 73.4 35.5 123.9 39.9 49 4.3 102.3-2.5 146-18.7 49-18.1 82.8-46.7 95.2-80.6 13.2-36.4 2.2-74.2-29.6-101.3-31.3-26.7-77.1-44.1-129-49-44.4-4-96.1 5.6-145.6 27.2m55.8 151.7c-4.8-11.8-4.1-28.7 2-46.3 6.5-18.6 18-36.2 32.5-49.4 13.7-12.4 28.7-19.5 41.2-19.5 13.9 0 20.3 8.6 23.2 15.8 4.8 11.8 4.1 28.7-2 46.3-6.5 18.7-18 36.2-32.6 49.4-13.7 12.4-28.7 19.5-41.2 19.5-13.7 0-20.1-8.6-23.1-15.8M567 106.4c-82.1 5.6-176.4 56.5-192.1 131.7l-.2.8-.1.8c-3.5 61.4 28.4 102.4 92.2 118.7 48.6 12.4 106.4 13.3 138.3 7.8 20-3.8 39.6-10.9 58.4-21.3 17.1-9.5 33.7-21.6 50.7-37l9.3-8.4-26.2-20-6.3 4.9c-.2.1-18.8 14.3-43 22.3-25.9 8.6-66.9 16.2-90.8 13.9l-.6-.1h-.6c-27.8.5-45.6-16.9-51.7-27.3-2.4-4.1-3.2-10.3-3.2-16.4 0-4.7.5-9.2 1.1-12.7h228l.8-9.5c.5-5.5.7-11 .7-16.3 0-36.9-11.6-68-33.9-90.8-29-29.9-76.7-44.8-130.8-41.1m54.1 72.7c7 6.9 10.2 15.3 11.8 21.8-17.3 0-89.2.1-114.5.1 10.5-14.7 30.4-35.4 60.7-35.8 18.4-.1 32.6 4.5 42 13.9m1060.7-72.7c-82.1 5.6-176.4 56.5-192.1 131.7l-.2.8v.8c-3.5 61.4 28.4 102.4 92.2 118.7 48.6 12.4 106.4 13.3 138.3 7.8 20-3.8 39.6-10.9 58.4-21.3 17.2-9.5 33.8-21.6 50.7-37l9.3-8.4-26.1-20-6.3 4.9c-.2.1-18.8 14.3-43 22.3-25.9 8.6-66.9 16.2-90.8 13.9l-.6-.1h-.6c-27.8.5-45.6-16.9-51.7-27.3-2.4-4.1-3.2-10.3-3.2-16.4 0-4.7.5-9.2 1.1-12.7h228l.8-9.5c.5-5.5.7-11 .7-16.3 0-36.9-11.6-68-33.9-90.8-29.1-29.9-76.9-44.8-131-41.1m54.1 72.7c7 6.9 10.2 15.3 11.8 21.8-17.3 0-89.2.1-114.5.1 10.5-14.7 30.4-35.4 60.7-35.8 18.4-.1 32.6 4.5 42 13.9M1853.3 0h-127.2l-71.5 97.2 91 .3 141-97.5h-33.3z" fill="#fff"/></svg>