<svg width="1290" height="353" xmlns="http://www.w3.org/2000/svg"><g fill="#FFF" fill-rule="nonzero"><path d="M139.032 9v237.786h52.81L255 336H7V9h132.032z"/><path d="M368.997 348C271.264 348 191.995 270.112 192 174 192 77.882 271.264 0 368.997 0 466.737 0 546 77.878 546 174c0 96.11-79.272 174-177.003 174zm0-110.057c29.99 0 54.511-28.53 54.511-63.948 0-35.419-24.52-63.948-54.51-63.948-29.986 0-54.511 28.536-54.511 63.953s24.52 63.943 54.51 63.943zM727.003 348c-97.73 0-176.998-77.885-177.003-174C550 77.882 629.265 0 727.003 0 824.738 0 904 77.879 904 174c0 96.11-79.268 174-176.997 174zm0-110.057c29.985 0 54.505-28.531 54.505-63.948 0-35.419-24.521-63.954-54.505-63.954-29.993 0-54.511 28.532-54.511 63.954 0 35.418 24.52 63.948 54.51 63.948zM1146.496 10.21l2.577-1.21H1288l-124.12 161.986L1281.418 336h-146.623l-95.568-129.948V336H913V9h126.227v130.01l107.27-128.8z"/></g></svg>