<svg id="Layer_1" xmlns="http://www.w3.org/2000/svg" viewBox="0 0 139.6 88.2"><path fill="#FFF" class="st0" d="M18.5 82.4c1.5 0 1.7 1.1 1.3 1.9l-.5 1.1c-.2.4-.2.4-.7.4H1.4L0 88.2h27l2.8-5.2c.9-1.8 0-3.3-2.2-3.3H16.7c-1 0-1.4-.9-1.1-1.7l.5-1.2c.2-.6.2-.6.9-.6l16.4-.1 1.4-2.6H11.2c-2.2 0-3.7 1.6-4.2 2.6l-1.2 2.1c-1 1.8-.4 4.2 2.6 4.1l10.1.1zM64.4 73.5h21.1c1.8 0 2.7 2 1.7 3.7l-5 8.6c-.8 1.4-2.6 2.5-3.9 2.5H57.2c-1.8 0-3-1.6-2-3.2l5.3-9c.8-1.5 2.6-2.6 3.9-2.6zM76 76.2h-5.4c-.6 0-1.4.5-1.8 1.1L65.1 84c-.5.8.1 1.8 1 1.8h5.6c.6 0 1.4-.5 1.8-1.1l3.7-6.5c.6-1.2-.1-2-1.2-2zM98.9 73.5h9.4l-8.5 14.7h-9.4z"/><path fill="#FFF" class="st0" d="M89 76.2l1.5-2.7H115l-1.5 2.7h-6.7l-7 12h-9.4l6.9-12zM115.9 76.2l1.3-2.7h22.4l-1.6 2.7h-6.7l-7 12h-9.4l6.9-12zM36.2 76.1c1-1.9 2.7-2.5 4.8-2.6h18.1l-1.6 2.7H46.8c-.8 0-1.5.5-1.7.9l-3.8 6.4c-.6 1-.2 2.2 1.5 2.2h9.4l-1.4 2.5H33c-1.7 0-2.6-1.9-1.7-3.3l4.9-8.8zM88.7.3l-7 11.9-12.1.2c-2 .1-3.1.4-4.1 2.1L61 22.7c-1 1.9-.8 3.7-.1 5.2L64 34c1.6 2.2 1.7 5.8.8 7.8l-6.7 10.9-11.8-20.3c-1.1-2.6-.9-8.1 1.4-11.9l9.8-17C59.1.8 60.9-.1 65.1-.1l23.6.4z"/><path fill="#FFF" class="st0" d="M51.2 64.9l6.9-12.1h12.2c2-.1 3.1-.4 4.2-2.1l4.5-8.3c1-1.9.8-3.7.1-5.2L75.9 31c-1.6-2.2-1.7-5.8-.8-7.8l6.6-11 12 20.4c1.1 2.6.9 8.2-1.4 11.9l-9.8 17c-1.6 2.7-3.4 3.7-7.6 3.6l-23.7-.2z"/></svg>
