<svg id="Layer_1" xmlns="http://www.w3.org/2000/svg" viewBox="0 0 175.7 22.8"><path fill="#FFF" class="st0" d="M113.7 6.7v7h-9.8V6.6c0-1.9 1.5-2.7 2.1-2.7h5.1c1.2 0 2.6 1.1 2.6 2.8zm43.7-2.9h3.5c1.4 0 2.6 1.1 2.6 2.5v10.3c0 1.4-1.1 2.5-2.5 2.5h-3.5c-1.4 0-2.5-1.1-2.5-2.5V6.3c-.1-1.4 1-2.5 2.4-2.5zM97.5 6.2v16.5h6.2v-4.9h9.9v4.9h6.4V6.4c-.1-4.1-2.4-6.3-5.7-6.3h-11.8c-3.3-.1-5 2.8-5 6.1zm72.4 11.2V5.3c0-2.9-2.4-5.3-5.3-5.3h-10.7c-2.9 0-5.3 2.4-5.3 5.3v12.1c0 2.9 2.4 5.3 5.3 5.3h10.7c2.9 0 5.3-2.4 5.3-5.3zm-165-3.7h8.8c1.4 0 2.2 1.1 2.4 2.2.3 1.5-.6 2.9-2.5 2.9H.7v3.8H17c.4 0 1.3-.2 1.8-.5 2.1-1 2.9-3.2 3-5.2V15c-.1-4.6-1.4-6.4-6.3-6.4H8.1C6.3 8.7 5.9 7.2 5.9 6c.1-2.4 2-2.1 4.1-2.1h11.2V0H4.8c-.4 0-1.2.2-1.6.3C1 1.1.1 3.6 0 6.4c-.1 3.4 1.1 7.2 4.9 7.3zm133.7-6v15.1h6.4V6.3c0-3.9-2.2-6.3-6.2-6.3h-15.1v22.7h6.2V3.8h6c2.2 0 2.7 2.1 2.7 3.9zm-54.1-4c1.4.2 2.9.4 2.9 3.2v15.8h6.3V7.2c-.1-3.3.1-6.9-5.2-7.1H64.3v22.7h6.3v-19h5.3v19H82v-19h2.5v-.1zM52.6 0v22.7h6.6V0h-6.6zM31.9 0h-6.2v22.7h6.2v-5.1h9.4v5h6.2V0h-6.2v13.4h-9.4V0zM173.6 4.5c-1 0-1.9-.8-1.9-1.9 0-1 .9-1.9 1.9-1.9s1.9.8 1.9 1.9c0 1.1-.9 1.9-1.9 1.9zm-.6-2v-.7h.7c.3 0 .4.2.4.3 0 .3-.1.4-.4.4h-.7zm.6 2.3c1.2 0 2.2-1 2.2-2.2 0-1.2-1-2.2-2.2-2.2s-2.2 1-2.2 2.2c0 1.3 1 2.2 2.2 2.2zm-1.1-.8h.5V3h.6c.4 0 .4.1.4.5 0 .3 0 .4.1.5h.6v-.1c-.1 0-.1-.1-.1-.5 0-.5-.1-.6-.3-.7.3-.1.4-.3.4-.6 0-.2-.1-.7-.8-.7h-1.3V4h-.1z"/></svg>
