<svg xmlns="http://www.w3.org/2000/svg" id="Capa_1" viewBox="0 0 535.1 88.9"><style>.st0{fill:#fff}</style><path d="M312 28.4l-5.1 14.1c-4.3-2.4-9.9-4-16.4-4.7l-73.5-8c-2.4-.2-3.8-1.5-3.2-3 .6-1.7 3.5-3 6.3-3h127.2l7.1-19.4H227.2c-21.4 0-42.5 10.1-47 22.5-4 11.1 6.5 20.2 24 22.1l73.5 8c3.2.3 5.1 2 4.4 4-.8 2.3-4.7 4.1-8.6 4.1H166.3l-7.1 19.4h107.2c9.5 0 18.9-1.9 27-5.1l-1.8 5.1h33.6l20.4-56.1H312zm189.6-24l-5.4 14.8c-9.4-9-26.6-14.8-48.3-14.8h-88.4l-29.1 80.1h88.4c21.7 0 43.1-5.8 59.1-14.8l-5.4 14.8H506l29.1-80.1h-33.5zm-32.7 40C464.8 55.8 445.5 65 425.8 65H371l15-41.2h54.8c19.7 0 32.3 9.3 28.1 20.6M516.6 79.7c0-2.2 1.7-3.9 3.9-3.9 2.1 0 3.8 1.7 3.8 3.9 0 2.3-1.7 4-3.8 4-2.2-.1-3.9-1.8-3.9-4m3.9 4.7c2.6 0 4.8-2 4.8-4.7s-2.2-4.7-4.8-4.7c-2.6 0-4.8 2-4.8 4.7-.1 2.7 2.2 4.7 4.8 4.7m-1-4.4h1l1.4 2.4h.9l-1.6-2.4c.8-.1 1.4-.5 1.4-1.5 0-1.1-.6-1.5-1.9-1.5h-2.1v5.5h.8V80zm0-.7v-1.7h1.1c.6 0 1.2.1 1.2.8 0 .8-.6.9-1.3.9h-1zM82.9 32.4c-4.5 4.1-15.8 8.1-24.4 4.3-8.4-3.7-4.9-10 .4-13.1 5.6-3.2 16.5-7.4 34.7-7.4 18.7-.1 33.7 3.3 44.8 8.4 11.3 5.3 18.9 12.8 18.9 25 0 14.2-21.1 34-53.4 39.4 8.1-4.6 10.4-7.7 11.3-9.2-13.3 6-39.9 10.5-69.2 8.4 6.4-.9 16.4-3.8 21-6.2-22.7-.3-46-6.5-59.5-15.5 6.3 1.6 17.4 2.9 24.4 2C15.4 62.7 0 52.4 0 38.2c1.7 2.5 9.2 8.3 14.8 9.6-5-5.6-11.2-22.1 7.4-35.8-2 4.1-.8 8.1.5 10.6 5.1-6.4 17.1-15.5 38.8-20.1-3.5 2.8-5.7 5-7.6 7.9C62.4 6.3 79.4 0 106.7 0c-8 1.2-12.4 2.9-16.5 5.3 10.1-.8 29.9-1.8 53.4 6-5.9-.6-9.6-.5-15.5-.1 10.8 2.3 23.4 8.1 32.4 16-14.3-5.5-30.1-13.6-64.6-13.6-36.1 0-47.5 10.6-47.5 17.5s10.3 13.8 32.2 13.8c11.7 0 19-1.7 25.3-4.7 5.9-2.8 9.7-8.4 1.3-12.1-8.6-3.8-19.8.1-24.3 4.3" class="st0"/></svg>