<svg xmlns="http://www.w3.org/2000/svg" viewBox="0 0 391.4 84.6"><metadata><?xpacket begin="﻿" id="W5M0MpCehiHzreSzNTczkc9d"?>
<x:xmpmeta xmlns:x="adobe:ns:meta/" x:xmptk="Adobe XMP Core 5.6-c143 79.161356, 2017/09/07-01:11:22        ">
   <rdf:RDF xmlns:rdf="http://www.w3.org/1999/02/22-rdf-syntax-ns#">
      <rdf:Description rdf:about=""/>
   </rdf:RDF>
</x:xmpmeta>
                                                                                                    
                                                                                                    
                                                                                                    
                                                                                                    
                                                                                                    
                                                                                                    
                                                                                                    
                                                                                                    
                                                                                                    
                                                                                                    
                                                                                                    
                                                                                                    
                                                                                                    
                                                                                                    
                                                                                                    
                                                                                                    
                                                                                                    
                                                                                                    
                                                                                                    
                                                                                                    
                           
<?xpacket end="w"?></metadata>
<path d="M54.9 63.9c0 14.3-12.7 20.7-26.3 20.7-13.9 0-23.3-4.8-28.6-10.8l10.7-8.3c3.3 4.8 9.5 7.4 17.1 7.4 6.8 0 11.4-3.7 11.4-6.9 0-10-36.6-1.8-36.6-24.2 0-13.3 11.6-19.2 26.2-19.2 14.1 0 21.6 7.2 24.4 10.7l-9.9 9.3c-1.8-3.9-6.4-8.4-14.8-8.4-6.7-.1-10.9 2.2-10.9 5.7 0 10.5 37.3 1.7 37.3 24zm59.5-39.8H95.9L73.5 46.3V0H59.2v83.2h14.3V64.6l8.1-7.9 17.6 26.5h17.4L91.5 47.1l22.9-23zm4.7 30.7v28.3h14.3V54.6c0-12.9 8.8-17.4 18.5-17.4V22.7c-8.3 0-17.3 1.7-23.8 7.9-9.9 9.3-9 24.2-9 24.2zm87.6 18.5c0 6.1 1.4 8.6 2.2 9.9h-15.1c-.9-1.4-1.4-3.9-1.4-5.4-5.5 4.4-11.9 6.8-19.3 6.8-11.2 0-20.1-7.1-20.1-18.6 0-11.6 9.2-16.7 18-18.5l6-1.2c5.1-1 11.8-2.2 15.4-3.5V41c0-5.8-5-7.5-11.2-7.5-8.3 0-11 2.5-11 8.9l-14.2-.5c0-13.9 12.3-19.3 25.2-19.3 12.7 0 25.5 2.6 25.5 19.4v31.3zm-14.3-19.7c-1.9.9-4.2 1.6-6.8 2.1l-7.8 1.6c-5.4 1-9.8 2.6-9.8 8.2 0 4.4 4.1 7.4 9.2 7.4 6.7 0 15.2-3.3 15.2-10.9v-8.4zm80.7 17.9c-9.9 0-14.5-8.6-14.5-17.9 0-9.2 5.1-17.9 15.3-17.9 5.6 0 10.6 3.6 12.5 9.5l12.5-5.7c-3.6-8.9-10.6-16.8-25-16.8-19.2 0-30.3 13.3-30.3 31 0 17.6 11.1 31 29.2 31 16 0 22.8-9.5 26.8-18.1l-12.1-6.4c-2.3 5.2-5.9 11.3-14.4 11.3zm62.4-48.8c-8.1 0-13.8 3.2-16.9 7.2h-.2V0h-14.3v83.2h14.3V52.8c0-7.2 3.3-16.4 14-16.4 7.2 0 10.5 3.5 10.5 11.7v35.1h14.3V44c-.1-17.1-11.6-21.3-21.7-21.3zm52.3 56.9h-21.3v3.6h24.6V72.1h-3.3v7.5zm-21.3-19.5l24.6-5v3.5l-5.6 1.1v5.8l5.6 1.1v3.5l-24.6-5v-5zm4.1 2.5l11.5 2.3v-4.5l-11.5 2.2zm20.5-16v5h-24.6v-5c0-4.4.5-7.9 6.8-7.9 3.7 0 4.8 1.5 5.2 3.4.2-2.4 1.7-3.8 5.4-3.8 5.9 0 7.2 2.9 7.2 8.3zm-14.3 0c0-2.5-.3-4.3-3.5-4.3-3.1 0-3.4 1.6-3.5 4.3V48h7v-1.4zm11 0c0-3.1-.5-4.7-3.9-4.7-3.5 0-3.8 2-3.9 4.7V48h7.8v-1.4zm-15.5-12c7.2 0 8.1-8.6 13-8.6 1.9 0 2.9 1 2.9 2.6 0 2-1.5 2.6-2.9 2.8h-2.2V35h2.2c3 0 6.2-1.6 6.2-6.4 0-3.9-2.4-6.2-6.2-6.2-7 0-8.2 8.6-13 8.6-1.8 0-2.8-1-2.8-2.5 0-1.7 1.7-2.3 2.8-2.3h2v-3.5h-2c-2.9 0-6 1.5-6 5.8-.1 3.8 2.3 6.1 6 6.1zM230 3.2h-14.3V20H230v14.4h-14.2v35.3c0 9 4 14.2 15.7 14.2 4.4 0 7.9-.7 11.3-1.4V70.8c-2.1.2-4.3.7-6.3.7-5.5 0-6.4-2.6-6.4-7.2v-30h14.3V19.9H230V3.2z" fill="#fff"/></svg>