<svg width="1099" height="149" xmlns="http://www.w3.org/2000/svg"><g fill="#FFF" fill-rule="nonzero"><path d="M.69 101.37H19c.83 7.58 4 13.86 16.58 13.86 8.41 0 14-4.62 14-11.25s-3.55-9.12-16-11c-21.67-2.84-30.56-9.35-30.56-25.7 0-14.45 12.08-25.22 30.8-25.22 19.07 0 30.2 8.52 31.74 25.34H47.94c-1.18-7.7-5.68-11.25-14.09-11.25S21.18 60 21.18 65.72c0 6 2.72 8.89 15.75 10.78 20.49 2.61 31 8.17 31 25.7 0 15-12.32 27-32.34 27-23.18.01-33.84-10.89-34.9-27.83zM80.44 109.54V78.16H72.5V66h7.94V52.58h17.05V66h13v12.2h-13V108c0 5 2.49 7.34 6.87 7.34a16 16 0 0 0 6.52-1.19v13.27a31.22 31.22 0 0 1-10.43 1.66c-13.02.01-20.01-6.63-20.01-19.54zM114.91 97.7v-.95c0-19.54 13.86-32.21 31.86-32.21 16 0 30.2 9.36 30.2 31.5v4.74h-44.65c.48 10.3 6 16.23 15.4 16.23 7.93 0 11.84-3.44 12.91-8.65h16.23c-2 13.38-12.68 20.85-29.61 20.85-18.72 0-32.34-11.73-32.34-31.51zm45.36-7.46c-.59-9.36-5.33-13.86-13.5-13.86-7.7 0-12.91 5.1-14.21 13.86h27.71zM182.81 110.73c0-14.45 13.26-19.9 32.21-19.9h7v-2.49C222 81 219.76 77 211.94 77c-6.75 0-9.83 3.44-10.54 8.77h-16.22c1.06-14.69 12.67-21.2 27.83-21.2 15.16 0 25.94 6.16 25.94 23v40.33h-16.7v-7.46c-3.56 5-9 8.77-18.72 8.77-11.25 0-20.72-5.45-20.72-18.48zm39.2-4.5V101h-6.63c-9.95 0-15.75 2.13-15.75 8.76 0 4.5 2.72 7.46 9 7.46 7.58.02 13.37-4.12 13.37-10.99h.01zM248.26 97.82v-.95c0-20.37 11.73-32.33 27.24-32.33 9.95 0 16.11 4.38 19.55 10.66V37.89h17.05v90h-17.05V117.6c-3.2 6.28-10.78 11.61-19.9 11.61-15.04 0-26.89-10.78-26.89-31.39zm47.26-.59v-1c0-12.32-5.45-18.59-14.8-18.59-9.6 0-14.93 6.51-14.93 18.83v.94c0 12.32 5.92 18.36 14.45 18.36 9 .05 15.28-5.99 15.28-18.54zM343.28 121.63L318.65 66h18.47l15 37.19L366 66h16.46L349 149h-16.61zM414.22 101.37h18.36c.82 7.58 4 13.86 16.58 13.86 8.41 0 14-4.62 14-11.25s-3.55-9.12-16-11c-21.67-2.84-30.55-9.35-30.55-25.7 0-14.45 12.08-25.22 30.79-25.22 19.07 0 30.2 8.52 31.74 25.34h-17.67c-1.18-7.7-5.68-11.25-14.09-11.25s-12.67 3.91-12.67 9.59c0 6 2.72 8.89 15.75 10.78 20.49 2.61 31 8.17 31 25.7 0 15-12.32 27-32.33 27-23.19-.01-33.85-10.91-34.91-27.85zM494 109.54V78.16h-8V66h8V52.58h17V66h13v12.2h-13V108c0 5 2.49 7.34 6.87 7.34a16 16 0 0 0 6.52-1.19v13.27a31.2 31.2 0 0 1-10.39 1.67c-13 0-20-6.64-20-19.55zM530 110.73c0-14.45 13.27-19.9 32.22-19.9h7v-2.49C569.23 81 567 77 559.17 77c-6.75 0-9.83 3.44-10.54 8.77H532.4c1.07-14.69 12.67-21.2 27.83-21.2 15.16 0 25.94 6.16 25.94 23v40.33h-16.7v-7.46c-3.55 5-9 8.77-18.71 8.77-11.25 0-20.76-5.45-20.76-18.48zm39.2-4.5V101h-6.6c-10 0-15.75 2.13-15.75 8.76 0 4.5 2.72 7.46 9 7.46 7.58.02 13.38-4.12 13.38-10.99h-.03zM600.27 109.54V78.16h-7.93V66h7.93V52.58h17.06V66h13v12.2h-13V108c0 5 2.48 7.34 6.87 7.34a16 16 0 0 0 6.51-1.19v13.27a31.15 31.15 0 0 1-10.42 1.66c-13.03.01-20.02-6.63-20.02-19.54zM634.75 97.7v-.95c0-19.54 13.85-32.21 31.86-32.21 16 0 30.2 9.36 30.2 31.5v4.74h-44.65c.47 10.3 6 16.23 15.39 16.23 7.94 0 11.85-3.44 12.91-8.65h16.23c-2 13.38-12.67 20.85-29.61 20.85-18.71 0-32.33-11.73-32.33-31.51zm45.36-7.46c-.59-9.36-5.33-13.86-13.5-13.86-7.7 0-12.91 5.1-14.22 13.86h27.72zM731.5 86.09v-.94c0-25.7 18-43.23 42-43.23 20.37 0 35.53 10 37.54 30.79h-19.61c-1.42-10.18-7.11-15.63-17.76-15.63-13.39 0-21.91 10.42-21.91 27.95v1c0 17.52 8 27.71 22 27.71 10.54 0 17.89-5.33 19.43-16.23H812c-2.13 21-17.17 31.75-38 31.75-27.69-.05-42.5-17.11-42.5-43.17zM840.64 121.63L816 66h18.48l15 37.19L863.38 66h16.46l-33.52 83h-16.58zM879.87 97.7v-.95c0-20 14.33-32.21 32-32.21 14.33 0 27.59 6.28 29.13 24h-16.24C923.57 81.32 919.19 78 912.2 78c-8.88 0-14.8 6.63-14.8 18.48v.94c0 12.44 5.56 18.84 15.16 18.84 6.87 0 12.43-4 13.26-12h15.52c-1 14.69-11.61 24.88-29.61 24.88S879.87 118 879.87 97.7zM950.69 37.89h17v90h-17zM977.44 97.7v-.95c0-19.54 13.86-32.21 31.86-32.21 16 0 30.2 9.36 30.2 31.5v4.74h-44.65c.48 10.3 6 16.23 15.4 16.23 7.94 0 11.84-3.44 12.91-8.65h16.23c-2 13.38-12.68 20.85-29.61 20.85-18.72 0-32.34-11.73-32.34-31.51zm45.37-7.46c-.6-9.36-5.34-13.86-13.51-13.86-7.7 0-12.91 5.1-14.21 13.86h27.72zM1045.42 108.48h16c.71 5.57 3.43 8.76 10.9 8.76 6.63 0 9.71-2.48 9.71-6.75s-3.67-6-12.56-7.34c-16.46-2.49-22.85-7.23-22.85-19.31 0-12.91 11.84-19.3 24.51-19.3 13.74 0 24 5 25.58 19.19H1081c-1-5.1-3.79-7.47-9.71-7.47-5.57 0-8.76 2.61-8.76 6.4 0 3.79 3 5.45 12 6.75 15.51 2.25 24 6.16 24 19.42 0 13.26-9.71 20.38-26.06 20.38-16.74 0-26.47-7.35-27.05-20.73zM1.89.74h64.93v12.14H1.89z"/></g></svg>
