<svg id="图层_1" xmlns="http://www.w3.org/2000/svg" viewBox="0 0 623.6 187.1"><path fill="#FFF" id="XMLID_89_" class="st0" d="M562.7 47.9l-28.1 27.4-19.5-27.4h-59.9l44.3 60.8-77.8 72.1h62l40.4-39.4 28 39.4H614l-54.9-72.1 64.5-60.8z"/><path fill="#FFF" id="XMLID_10_" class="st0" d="M499.5 108.7l-77.8 72.1h62l40.4-39.4 28 39.4H614l-54.9-72.1 64.5-60.8h-60.9l-28.1 27.4-19.5-27.4h-59.9z"/><path fill="#FFF" id="XMLID_9_" class="st0" d="M7.6 0L0 39.9h46.8L19.9 181.4h56.6l26.9-141.5h46.8L157.8 0z"/><g id="XMLID_90_"><path fill="#FFF" id="XMLID_8_" class="st0" d="M103.4 39.9h46.8L157.8 0H7.6L0 39.9h46.8L19.9 181.4h56.6z"/><path fill="#FFF" id="XMLID_7_" class="st0" d="M429.1 53.9c-51.7-28.4-110.9-3.3-124.3 57.2-8.2 37 20 97.3 103 68.5l6.7-39.2c-50.5 15-61.7-6.7-61.3-24.7.4-17.5 24.2-45.9 69.4-24.2.4.1 6.5-37.6 6.5-37.6"/><path fill="#FFF" id="XMLID_6_" class="st0" d="M429.1 53.9c-51.7-28.4-110.9-3.3-124.3 57.2-8.2 37 20 97.3 103 68.5l6.7-39.2c-50.5 15-61.7-6.7-61.3-24.7.4-17.5 24.2-45.9 69.4-24.2.4.1 6.5-37.6 6.5-37.6z"/><path fill="#FFF" class="st0" d="M214.1 84.4c19.3 0 28.3 13.8 25.7 30.3-2.7 17-16 30-35.3 30-19.3 0-28.5-13-25.8-30 2.7-16.5 16.1-30.3 35.4-30.3m82.3-36.8h-47.5l-2.1 13c-8.1-11.7-23.3-17.5-38.7-17.5-39.7 0-72.3 32.9-78.3 71.2-6.1 38.4 16.6 71.5 56.3 71.5 15.7 0 33-6 43.5-19.3h.5l-2.3 14.9h47.5l21.1-133.8z"/><path fill="#FFF" id="XMLID_3_" class="st0" d="M214.1 84.4c19.3 0 28.3 13.8 25.7 30.3-2.7 17-16 30-35.3 30-19.3 0-28.5-13-25.8-30 2.7-16.5 16.1-30.3 35.4-30.3zm82.3-36.8h-47.5l-2.1 13c-8.1-11.7-23.3-17.5-38.7-17.5-39.7 0-72.3 32.9-78.3 71.2-6.1 38.4 16.6 71.5 56.3 71.5 15.7 0 33-6 43.5-19.3h.5l-2.3 14.9h47.5l21.1-133.8z"/></g></svg>
