<svg xmlns="http://www.w3.org/2000/svg" viewBox="0 0 450.7 50.3"><path d="M382 8.6l-13.4 12.5 61.7-15.4h-10.2c-10.2 0-22.4.5-32.2 2.1-2.6.3-4.4.6-5.9.8zM97.4 5h10.2L.2 31.7l-.2 10h109.2l27.9-16-14 .2c-16.2 7.2-37.7 10.8-63.5 10.8l-14.8-.3 98.8-23.5L158 0H47.2L23 14.5l13.3-.1C46.1 11.3 54 8.7 65 7c9.9-1.4 22.1-2 32.4-2zm167.3 3.7l-13.5 12.6 61.9-15.5H303c-10.2 0-22.5.5-32.3 2-2.6.4-4.6.6-6 .9zm-88.1 33h-58.7l5.3-5c4.2-.4 2.6-.2 6-.6 7.2-1 9.2-3.3 11.5-5.5l24.4-22.9c2.2-2-2.3-2.5-7.5-2.6l5.4-5h58.7l-5.4 5c-3.9.4-2 .1-5.3.6-7.1.9-9.2 3.3-11.4 5.4L175 34c-2.2 2.2.8 2.7 7 2.7l-5.4 5zM435.9 1.2c11.9 1.3 16.7 4.7 14.3 9.1-2.7 4.8-13.1 9.4-27 11.7-14.4 2.4-29.9 2.5-44.1 2.5h-14.7l-10.1 9.7c-2.3 2.2 2.9 2.6 9.8 2.6l-5.6 5H299l5.4-5c2.2-.1 2.9-.4 5-.8 6.2-1.1 8-3.3 10.2-5.1l24.6-23c2.3-2.2 2.9-2.7-5.5-2.7l5.3-5h61c9.4 0 22.6 0 30.9 1zM319.5 1c11.9 1.3 16.6 4.7 14.1 9-2.7 4.9-13.1 9.6-27 11.8-14.4 2.3-29.7 2.4-44.1 2.4h-14.7L237.7 34c-2.3 2.2 3 2.7 9.7 2.7l-5.6 5h-59.4l5.3-5c2.2-.2 3-.4 5-.9 6.2-1.1 8.1-3.2 10.2-5.3l24.6-22.9c2.2-2 2.8-2.6-5.4-2.6l5.3-5h61.2c9.4 0 22.6 0 30.9 1z" fill-rule="evenodd" clip-rule="evenodd" fill="#fff"/><path d="M371.3 49.2c-.8.8-1.7 1.1-2.8 1.1-1.1 0-2.1-.4-2.8-1.2-.8-.8-1.2-1.7-1.2-2.8 0-1.2.4-2.1 1.2-2.9.8-.7 1.7-1.1 2.7-1.1 1.1 0 2 .4 2.8 1.2.8.8 1.2 1.7 1.2 2.8.1 1.1-.3 2.1-1.1 2.9zm-5.2-5.2c-.6.7-1 1.4-1 2.3 0 .9.3 1.7 1 2.4.6.6 1.4 1 2.3 1 .9 0 1.7-.3 2.3-1 .6-.7 1-1.4 1-2.4 0-.9-.3-1.7-1-2.3-.6-.7-1.4-1-2.3-1-.8 0-1.6.3-2.3 1zm.6 4.5v-4.4h2.1c.3 0 .6.1.9.2.4.2.6.6.6 1.1 0 .4-.1.6-.3.8-.2.2-.5.3-.8.3.3.1.5.1.6.3.3.2.4.5.4 1v.7h-1.1c0-.1-.1-.3-.1-.6s0-.4-.1-.5c-.1-.2-.2-.3-.3-.3-.1 0-.2-.1-.4-.1h-.5v1.6h-1zm2.1-3.5c-.2-.1-.4-.1-.7-.1h-.3v1.3h.4c.3 0 .5-.1.6-.2.2-.1.2-.3.2-.5.2-.3.1-.4-.2-.5z" fill="#fff"/></svg>