<svg width="400" height="402" xmlns="http://www.w3.org/2000/svg"><g fill="#FFF" fill-rule="nonzero"><path d="M0 105.1h19.08c.86 7.9 4.19 14.43 17.27 14.43 8.75 0 14.55-4.81 14.55-11.72 0-6.91-3.7-9.49-16.65-11.47-22.57-3-31.82-9.74-31.82-26.76 0-15.05 12.58-26.28 32.07-26.28 19.85 0 31.45 8.89 33.05 26.4H49.17c-1.23-8-5.92-11.72-14.67-11.72s-13.2 4.07-13.2 10c0 6.29 2.84 9.25 16.4 11.23C59 81.91 70 87.71 70 106c0 15.67-12.83 28.13-33.67 28.13C12.17 134.09 1.07 122.74 0 105.1zM84.12 113.61V80.93h-8.27V68.22h8.27V54.28h17.76v13.94h13.57v12.71h-13.57V112c0 5.18 2.59 7.65 7.16 7.65a16.54 16.54 0 0 0 6.78-1.24v13.82A32.62 32.62 0 0 1 105 134c-13.61 0-20.88-6.94-20.88-20.39zM121.13 101.28v-1c0-20.35 14.43-33.55 33.18-33.55 16.65 0 31.45 9.74 31.45 32.81v4.93h-46.5c.5 10.74 6.29 16.9 16 16.9 8.26 0 12.33-3.57 13.44-9h16.9c-2.1 13.93-13.2 21.71-30.84 21.71-19.45.01-33.63-12.2-33.63-32.8zm47.24-7.77c-.61-9.75-5.55-14.44-14.06-14.44-8 0-13.44 5.31-14.8 14.44h28.86zM189.75 114.85c0-15 13.81-20.73 33.55-20.73h7.27v-2.59c0-7.64-2.34-11.84-10.48-11.84-7 0-10.24 3.58-11 9.13h-16.9c1.11-15.3 13.2-22.08 29-22.08s27 6.41 27 23.93v42.06h-17.37V125c-3.7 5.18-9.37 9.13-19.49 9.13-11.71-.04-21.58-5.72-21.58-19.28zm40.82-4.69v-5.43h-6.9c-10.37 0-16.41 2.22-16.41 9.13 0 4.68 2.84 7.77 9.38 7.77 7.89 0 13.93-4.32 13.93-11.47zM258.92 101.4v-1c0-21.21 12.21-33.67 28.37-33.67 10.36 0 16.77 4.56 20.35 11.1V39h17.76v93.74h-17.76V122c-3.33 6.54-11.23 12.09-20.72 12.09-15.67 0-28-11.23-28-32.69zm49.21-.62v-1c0-12.83-5.67-19.37-15.42-19.37-10 0-15.54 6.78-15.54 19.61v1c0 12.83 6.17 19.12 15.05 19.12 9.37.01 15.91-6.28 15.91-19.36zM358.94 126.19l-25.66-58h19.24L368.19 107l14.43-38.73h17.15l-34.91 86.47h-17.27zM0 228.47h19.08c.86 7.89 4.19 14.43 17.27 14.43 8.75 0 14.55-4.81 14.55-11.72 0-6.91-3.7-9.5-16.65-11.47-22.57-3-31.82-9.74-31.82-26.77 0-15 12.58-26.27 32.07-26.27 19.85 0 31.45 8.88 33.05 26.4H49.17c-1.23-8-5.92-11.72-14.67-11.72s-13.2 4.07-13.2 10c0 6.29 2.84 9.25 16.4 11.22C59 205.28 70 211.08 70 229.33c0 15.67-12.83 28.12-33.67 28.12-24.16 0-35.26-11.34-36.33-28.98zM84.12 237v-32.71h-8.27v-12.7h8.27v-13.94h17.76v13.94h13.57v12.7h-13.57v31.09c0 5.18 2.59 7.64 7.16 7.64a16.71 16.71 0 0 0 6.78-1.23v13.81a32.36 32.36 0 0 1-10.82 1.73c-13.61 0-20.88-6.91-20.88-20.33zM122.7 238.21c0-15 13.81-20.72 33.55-20.72h7.27v-2.59c0-7.65-2.34-11.84-10.48-11.84-7 0-10.24 3.58-11 9.13h-16.9c1.11-15.3 13.2-22.08 29-22.08s27 6.41 27 23.93v42.06h-17.37v-7.77c-3.7 5.18-9.38 9.12-19.49 9.12-11.72 0-21.58-5.67-21.58-19.24zm40.82-4.68v-5.43h-6.9c-10.36 0-16.41 2.22-16.41 9.13 0 4.68 2.84 7.77 9.38 7.77 7.89 0 13.93-4.32 13.93-11.47zM196.92 237v-32.71h-8.26v-12.7h8.26v-13.94h17.77v13.94h13.56v12.7h-13.56v31.09c0 5.18 2.59 7.64 7.15 7.64a16.76 16.76 0 0 0 6.79-1.23v13.81a32.36 32.36 0 0 1-10.86 1.73c-13.57 0-20.85-6.91-20.85-20.33zM233.94 224.64v-1c0-20.35 14.43-33.55 33.18-33.55 16.65 0 31.45 9.74 31.45 32.81v4.93h-46.5c.49 10.73 6.29 16.9 16 16.9 8.27 0 12.34-3.58 13.45-9h16.9c-2.1 13.93-13.2 21.7-30.84 21.7-19.46.02-33.64-12.19-33.64-32.79zm47.24-7.77c-.62-9.74-5.55-14.43-14.06-14.43-8 0-13.45 5.3-14.81 14.43h28.87zM.94 335.93v-1c0-26.77 18.75-45 43.79-45 21.22 0 37 10.36 39.1 32.07H63.36c-1.48-10.61-7.4-16.29-18.5-16.29-13.94 0-22.82 10.86-22.82 29.11v1c0 18.26 8.38 28.87 22.94 28.87 11 0 18.62-5.56 20.23-16.9h19.61c-2.22 21.83-17.88 33.05-39.59 33.05C16.37 380.82.94 363.06.94 335.93zM115.63 372.93L90 315h19.24l15.66 38.73L139.32 315h17.14l-34.91 86.46h-17.26zM157.69 348v-1c0-20.84 14.93-33.55 33.31-33.55 14.92 0 28.74 6.54 30.34 25h-16.9c-1.23-7.53-5.79-11-13.07-11-9.25 0-15.42 6.9-15.42 19.24v1c0 13 5.8 19.61 15.79 19.61 7.15 0 12.95-4.2 13.81-12.46h16.16c-1 15.3-12.09 25.9-30.83 25.9S157.69 369.1 157.69 348zM232.46 285.72h17.76v93.75h-17.76zM261.36 348v-1c0-20.35 14.43-33.55 33.18-33.55 16.65 0 31.45 9.75 31.45 32.82v4.93h-46.5c.49 10.73 6.29 16.9 16 16.9 8.27 0 12.34-3.58 13.45-9h16.9c-2.1 13.94-13.2 21.71-30.84 21.71-19.46.01-33.64-12.2-33.64-32.81zm47.24-7.77c-.62-9.74-5.55-14.43-14.06-14.43-8 0-13.45 5.3-14.8 14.43h28.86zM333.11 359.24h16.65c.74 5.79 3.57 9.12 11.35 9.12 6.9 0 10.11-2.59 10.11-7s-3.82-6.29-13.08-7.64c-17.14-2.59-23.8-7.53-23.8-20.11 0-13.44 12.34-20.11 25.53-20.11 14.31 0 25 5.19 26.65 20h-16.41c-1-5.31-3.95-7.77-10.12-7.77-5.79 0-9.12 2.71-9.12 6.66s3.08 5.67 12.45 7c16.16 2.34 25.05 6.41 25.05 20.23s-10.12 21.21-27.14 21.21c-17.39-.01-27.51-7.66-28.12-21.59zM2.32.3h67.61v12.64H2.32z"/></g></svg>
