<svg xmlns="http://www.w3.org/2000/svg" viewBox="0 0 921.89 276.49"><defs><style>.cls-1{fill:#231f20}</style></defs><g id="Layer_2" data-name="Layer 2"><g id="Layer_1-2" data-name="Layer 1"><path class="cls-1" d="M791.26 180.41h6.2c.28 2.57 1.36 4.68 5.6 4.68 2.84 0 4.72-1.56 4.72-3.8s-1.2-3.07-5.4-3.71c-7.32-1-10.32-3.16-10.32-8.68 0-4.88 4.08-8.52 10.4-8.52s10.2 2.88 10.71 8.56h-5.95c-.4-2.6-1.92-3.8-4.76-3.8s-4.28 1.32-4.28 3.24.92 3 5.32 3.64c6.91.88 10.48 2.76 10.48 8.67 0 5.08-4.16 9.12-10.92 9.12-7.84 0-11.44-3.68-11.8-9.4zM818.55 183.17v-10.59h-2.68v-4.12h2.68v-4.52h5.76v4.52h4.39v4.12h-4.39v10.07c0 1.68.84 2.48 2.31 2.48a5.48 5.48 0 0 0 2.21-.4v4.48a10.63 10.63 0 0 1-3.52.56c-4.4 0-6.76-2.24-6.76-6.6zM830.55 179.18v-.32c0-6.6 4.68-10.88 10.76-10.88 5.39 0 10.19 3.16 10.19 10.64v1.6h-15.07c.16 3.47 2 5.47 5.19 5.47 2.68 0 4-1.16 4.36-2.91h5.48c-.68 4.51-4.28 7-10 7-6.31.03-10.91-3.93-10.91-10.6zm15.31-2.52c-.2-3.16-1.8-4.68-4.55-4.68-2.6 0-4.36 1.72-4.8 4.68zM853.79 183.57c0-4.87 4.48-6.71 10.88-6.71H867V176c0-2.48-.76-3.84-3.4-3.84-2.28 0-3.32 1.16-3.56 3h-5.48c.36-5 4.28-7.16 9.4-7.16s8.76 2.08 8.76 7.76v13.63h-5.64v-2.52c-1.2 1.68-3 3-6.32 3-3.76-.06-6.97-1.87-6.97-6.3zm13.21-1.51v-1.76h-2.24c-3.36 0-5.32.72-5.32 2.95 0 1.52.92 2.52 3 2.52 2.63 0 4.56-1.4 4.56-3.71zM876.22 179.22v-.32c0-6.88 4-10.92 9.2-10.92 3.36 0 5.44 1.48 6.6 3.6V159h5.76v30.39H892v-3.48a7.61 7.61 0 0 1-6.72 3.92c-5.06-.02-9.06-3.66-9.06-10.61zm16-.2v-.32c0-4.16-1.84-6.28-5-6.28s-5 2.2-5 6.36v.32c0 4.15 2 6.19 4.88 6.19 2.96 0 5.08-2.04 5.08-6.29zM908.65 187.25l-8.32-18.79h6.24l5.08 12.54 4.68-12.56h5.56l-11.32 28H905zM791.26 220.41h6.2c.28 2.57 1.36 4.68 5.6 4.68 2.84 0 4.72-1.56 4.72-3.8s-1.2-3.07-5.4-3.71c-7.32-1-10.32-3.16-10.32-8.68 0-4.88 4.08-8.52 10.4-8.52s10.2 2.88 10.71 8.56h-5.95c-.4-2.6-1.92-3.8-4.76-3.8s-4.28 1.32-4.28 3.24.92 3 5.32 3.64c6.91.88 10.48 2.76 10.48 8.67 0 5.08-4.16 9.12-10.92 9.12-7.84 0-11.44-3.68-11.8-9.4zM818.55 223.17v-10.59h-2.68v-4.12h2.68v-4.52h5.76v4.52h4.39v4.12h-4.39v10.07c0 1.68.84 2.48 2.31 2.48a5.48 5.48 0 0 0 2.21-.4v4.48a10.63 10.63 0 0 1-3.52.56c-4.4 0-6.76-2.24-6.76-6.6zM831.05 223.57c0-4.87 4.48-6.71 10.88-6.71h2.36V216c0-2.48-.76-3.84-3.4-3.84-2.28 0-3.32 1.16-3.56 3h-5.48c.36-5 4.28-7.16 9.4-7.16s8.76 2.08 8.76 7.76v13.63h-5.64v-2.52c-1.2 1.68-3 3-6.32 3-3.8-.06-7-1.87-7-6.3zm13.24-1.51v-1.76h-2.24c-3.36 0-5.32.72-5.32 2.95 0 1.52.92 2.52 3 2.52 2.6 0 4.56-1.4 4.56-3.71zM855.12 223.17v-10.59h-2.68v-4.12h2.68v-4.52h5.76v4.52h4.4v4.12h-4.4v10.07c0 1.68.84 2.48 2.32 2.48a5.4 5.4 0 0 0 2.2-.4v4.48a10.54 10.54 0 0 1-3.52.56c-4.4 0-6.76-2.24-6.76-6.6zM867.12 219.18v-.32c0-6.6 4.68-10.88 10.76-10.88 5.4 0 10.2 3.16 10.2 10.64v1.6H873c.16 3.47 2 5.47 5.2 5.47 2.68 0 4-1.16 4.36-2.91H888c-.68 4.51-4.28 7-10 7-6.28.03-10.88-3.93-10.88-10.6zm15.32-2.52c-.2-3.16-1.8-4.68-4.56-4.68-2.6 0-4.36 1.72-4.8 4.68zM791.58 255.26v-.32c0-8.68 6.08-14.6 14.2-14.6 6.88 0 12 3.36 12.67 10.4h-6.63c-.49-3.44-2.41-5.28-6-5.28-4.52 0-7.4 3.52-7.4 9.44v.32c0 5.92 2.72 9.35 7.44 9.35 3.55 0 6-1.79 6.55-5.47h6.36c-.72 7.07-5.79 10.71-12.83 10.71-9.36 0-14.36-5.76-14.36-14.55zM828.76 267.25l-8.31-18.79h6.23l5.08 12.54 4.68-12.56H842l-11.32 28h-5.6zM842.4 259.18v-.32c0-6.76 4.84-10.88 10.8-10.88 4.84 0 9.32 2.12 9.84 8.12h-5.48a3.85 3.85 0 0 0-4.24-3.56c-3 0-5 2.24-5 6.24v.32c0 4.19 1.88 6.35 5.12 6.35a4.24 4.24 0 0 0 4.48-4h5.24c-.32 5-3.92 8.4-10 8.4S842.4 266 842.4 259.18zM866.65 239h5.75v30.39h-5.75zM876 259.18v-.32c0-6.6 4.68-10.88 10.76-10.88 5.4 0 10.2 3.16 10.2 10.64v1.6h-15.07c.16 3.47 2 5.47 5.2 5.47 2.68 0 4-1.16 4.36-2.91h5.48c-.68 4.51-4.28 7-10 7-6.32.03-10.93-3.93-10.93-10.6zm15.32-2.52c-.2-3.16-1.8-4.68-4.56-4.68-2.6 0-4.36 1.72-4.8 4.68zM899.28 262.82h5.4c.23 1.87 1.15 2.95 3.67 2.95 2.24 0 3.28-.84 3.28-2.28s-1.23-2-4.23-2.47c-5.56-.84-7.72-2.44-7.72-6.52 0-4.36 4-6.52 8.27-6.52 4.64 0 8.12 1.68 8.64 6.48h-5.32c-.32-1.72-1.28-2.52-3.28-2.52s-3 .88-3 2.16 1 1.84 4 2.28c5.23.76 8.11 2.08 8.11 6.56s-3.28 6.87-8.79 6.87-8.83-2.48-9.03-6.99zM791.65 145.9h22.75v4.41h-22.75zM739.6 123.46l160.72-29-128.81-28.77-9.38 15.9c-2.52 4.26-8.63 7.75-13.58 7.75h-54.27c-4.95 0-6.94-3.49-4.43-7.76l1.35-2.29c2.51-4.27.52-7.76-4.43-7.76h-46c-5 0-11.06 3.49-13.57 7.76l-23 39c-2.51 4.27-4.92 8.38-5.36 9.15s3.26 1.39 8.21 1.39h47.64c4.95 0 11.06-3.49 13.57-7.76l1.62-2.75a17.47 17.47 0 0 1 13.56-7.76h54.85c4.95 0 6.92 3.48 4.38 7.73zM103.75 117.53h53.05c4.95 0 7.31 2.88 5.24 6.39s.29 6.4 5.24 6.4h48.19c4.95 0 11-3.47 13.53-7.69s.54-8.42-4.33-9.32l-108-19.76c-4.87-.89-6.8-5.11-4.28-9.37l7.93-13.49L0 94.5 97.59 119a15.24 15.24 0 0 1 6.16-1.47z"/><path class="cls-1" d="M523.9 151.3c-4.95 0-6.93-3.48-4.4-7.74l53.16-89.62c2.52-4.26 8.64-7.74 13.59-7.74h98.09L477.76 0 244.19 46.2h96.49c4.95 0 6.95 3.49 4.44 7.75l-11.36 19.3c-2.51 4.26-8.62 7.79-13.57 7.84l-52.45.5c-4.95 0-8-1.58-6.82-3.62s-1.86-3.71-6.81-3.71h-52.36c-4.95 0-9.76 1.27-10.67 2.83s2.33 3.46 7.22 4.22L311 98.82c4.89.76 6.84 4.87 4.33 9.14l-20.95 35.59c-2.51 4.26-8.62 7.75-13.57 7.75H226L376 189l209.13-37.7zm-22.65 0H304.33c-4.95 0-6.95-3.49-4.44-7.75l10.75-18.26c2.51-4.27 8.62-7.76 13.57-7.76h53.05c4.95 0 7.31 2.88 5.24 6.39s.29 6.4 5.24 6.4h48.19c4.95 0 11-3.47 13.53-7.69s.54-8.42-4.33-9.32l-108-19.76c-4.87-.89-6.8-5.11-4.29-9.37L350.67 54a17.48 17.48 0 0 1 13.56-7.75h198.91c5 0 7 3.49 4.44 7.75l-11.36 19.3c-2.51 4.26-8.62 7.79-13.57 7.84l-54.45.51c-4.95 0-8-1.59-6.82-3.63s-1.86-3.71-6.81-3.71H422.2c-4.95 0-9.75 1.27-10.66 2.83s2.33 3.46 7.22 4.22l112.68 17.46c4.89.76 6.84 4.87 4.33 9.14l-20.95 35.59c-2.51 4.26-8.62 7.75-13.57 7.75z"/></g></g></svg>