<svg xmlns="http://www.w3.org/2000/svg" viewBox="0 0 1195.17 555.72"><defs><style>.cls-1{fill:none;}.cls-2{fill:#fff;}</style></defs><title>Diamond - White</title><g id="Layer_2" data-name="Layer 2"><g id="Layer_1-2" data-name="Layer 1"><rect class="cls-1" width="1195.17" height="555.72"/><path class="cls-2" d="M239,305.62c6.87,0,10.39,3.56,7.83,7.92s1,7.92,7.83,7.92h55.9c6.75,0,14.75-4.21,17.78-9.36s.07-10.35-6.56-11.57L193,277c-6.65-1.22-9.28-7-5.85-12.8l9.08-15.43L48.93,277.86l119.36,30a20.87,20.87,0,0,1,8.83-2.24Z"/><path class="cls-2" d="M961.6,271.49H898c-6.76,0-9.48-4.76-6.06-10.59l.45-.76c3.43-5.82.71-10.59-6-10.59H832.76c-6.76,0-15.09,4.77-18.52,10.59l-26.48,45c-3.41,5.79-6.63,11.29-7.16,12.22s4.54,1.68,11.26,1.68h55.46c6.76,0,15.09-4.76,18.52-10.58l.45-.77c3.43-5.82,11.76-10.58,18.52-10.58h64.47c6.76,0,9.44,4.74,6,10.54l-3.12,5.22,194.11-35L990.66,243.07l-10.53,17.84C976.7,266.73,968.36,271.49,961.6,271.49Z"/><path class="cls-2" d="M684.43,336.49l63.38-106.84c3.45-5.81,11.8-10.57,18.55-10.57h117L631.22,162.69,346.1,219.08H463c6.76,0,9.48,4.77,6.06,10.59l-12.24,20.79c-3.43,5.82-11.76,10.64-18.52,10.7l-61.78.58c-6.45.06-10.59-1.83-9.19-4.21s-2.74-4.32-9.2-4.32H296.57c-6.75,0-13.19,1.55-14.31,3.45s3.43,4.3,10.1,5.34L427,282.92c6.67,1,9.33,6.65,5.91,12.48l-24.18,41.07c-3.43,5.82-11.76,10.59-18.52,10.59h-66l183,46,255.11-46H690.45C683.69,347.06,681,342.3,684.43,336.49Zm-25.51,10.57H421.43c-6.76,0-9.48-4.77-6.06-10.59L427.3,316.2c3.43-5.82,11.76-10.58,18.52-10.58h61.87c6.88,0,10.4,3.56,7.83,7.92s1,7.92,7.83,7.92h55.91c6.74,0,14.74-4.21,17.77-9.36s.08-10.35-6.55-11.57L461.67,277c-6.65-1.22-9.28-7-5.85-12.8l20.3-34.49c3.43-5.82,11.76-10.59,18.52-10.59H734.16c6.75,0,9.48,4.77,6.05,10.59L728,250.45c-3.43,5.83-11.76,10.64-18.52,10.7l-64.22.59c-6.46.06-10.59-1.84-9.2-4.21s-2.74-4.32-9.19-4.32H565.27c-6.76,0-13.2,1.55-14.31,3.45s3.43,4.3,10.1,5.34l134.65,20.92c6.67,1,9.33,6.65,5.9,12.48l-24.17,41.07C674,342.29,665.68,347.06,658.92,347.06Z"/></g></g></svg>