<svg xmlns="http://www.w3.org/2000/svg" viewBox="0 0 250 50"><path d="M206.05 11.9h-12.375l-9.25 30h14l9-30h-1.375zm-109 6.625h-12l-8.5 23.5h12.875S94.05 30.15 94.3 29.65c.5-.375 2-1.5 3.5-2.375 1.875-1.125 3.375-1.5 4.125-1.375 0 .375-.125.875-.125 1.375s0 1 .125 1.5c.25 1.25 1.25 3.5 4.875 3.5 1.875 0 3.125-.25 4.125-.875s1.5-1.625 2-2.75c1.25-3.125.5-5.125-.375-6.25-1-1.25-2.25-1.625-2.375-1.75-3.125-1.25-6.75-1.125-10.375.375-1 .375-1.875.75-2.625 1.125 0-.125 1.375-3.75 1.375-3.75l-1.5.125zm57.625 0H146.8L134.675 30.65c-.75-1.625-5.875-12.125-5.875-12.125h-16.625l7.75 14.625 4.75 8.875h9.75l22.625-23.5h-2.375zM10.55 23.775c-2.5 2.5-3.75 5.375-3.75 8 0 2.875 1.5 5.5 4.125 7.375 2.875 2.125 9.75 5.125 22.625 1.375h.125l2-1 1.625-1c.875-.625 2.625-2.125 2.625-2.25l.75-.75-2.75-2.875-.75.375C31.8 36.275 26.8 37.15 23.3 35.275c-1.75-.875-3-2.5-3-4.125-.125-2.25.75-4.25 2.5-5.625 2.25-1.75 5.625-2 9.25-.875 0 .375-.125.75-.125 1.125v.125c0 1 .5 2.375 2.25 3.375h.125c3.75 1.5 6.375 0 7.5-1.875.75-1.125.875-2.5.625-3.625s-1-2.125-2.125-2.75l.125.125c-2-1.625-3.875-2.5-6-3.125-2-.625-4-.75-6.375-1-6.875.375-13.375 2.75-17.5 6.75m202.75-3.75c-4.5 2-7.875 5.125-9.125 8.5-.375.875-.5 1.75-.5 2.625 0 2.375 1.25 4.625 3.75 6.375 2.875 2 7.125 3.375 12 3.875 4.75.375 9.875-.25 14.125-1.75 4.75-1.75 8-4.5 9.125-7.75 1.25-3.5.25-7.125-2.875-9.75-3-2.625-7.5-4.25-12.5-4.75-4.25-.375-9.25.5-14 2.625m5.375 14.625c-.5-1.125-.375-2.75.25-4.5s1.75-3.5 3.125-4.75 2.75-1.875 4-1.875c1.375 0 2 .875 2.25 1.5.5 1.125.375 2.75-.25 4.5s-1.75 3.5-3.125 4.75-2.75 1.875-4 1.875c-1.375 0-2-.75-2.25-1.5M61.55 17.525c-7.875.5-17 5.5-18.5 12.75v.25c-.375 5.875 2.75 9.875 8.875 11.5 4.75 1.25 10.25 1.25 13.375.75 1.875-.375 3.875-1 5.625-2 1.625-.875 3.25-2.125 4.875-3.625l.875-.75-2.5-1.875-.625.5S71.8 36.4 69.425 37.15c-2.5.875-6.5 1.5-8.75 1.375-2.75 0-4.375-1.625-5-2.625-.25-.375-.25-1-.25-1.625 0-.5 0-.875.125-1.25h22l.125-.875c0-.5.125-1 .125-1.625 0-3.5-1.125-6.625-3.25-8.75-2.875-2.875-7.375-4.375-12.625-4m5.125 6.75c.625.625 1 1.5 1.125 2.125h-11c1-1.375 2.875-3.375 5.875-3.5 1.75 0 3.125.5 4 1.375m102.375-7c-7.875.5-17 5.5-18.5 12.75v.25c-.375 5.875 2.75 9.875 8.875 11.5 4.75 1.25 10.25 1.25 13.375.75 1.875-.375 3.875-1 5.625-2 1.625-.875 3.25-2.125 4.875-3.625l.875-.75-2.5-1.875-.625.5S179.55 36.4 177.3 37.15c-2.5.875-6.5 1.5-8.75 1.375-2.625 0-4.375-1.625-5-2.625-.25-.375-.25-1-.25-1.625 0-.5 0-.875.125-1.25h22l.125-.875v-1.625c0-3.5-1.125-6.625-3.25-8.75-3.125-3.25-7.75-4.625-12.875-4.25m5.125 7c.625.625 1 1.5 1.125 2.125h-11c1-1.375 2.875-3.375 5.875-3.5 1.75 0 3.125.5 4 1.375m11.375-17.25h-12.25L166.8 16.65h8.75l13.625-9.375h-3.25z" fill="#fff"/></svg>